<?xml version="1.0" encoding="utf-8"?>
<!-- Generator: Adobe Illustrator 23.0.6, SVG Export Plug-In . SVG Version: 6.00 Build 0)  -->
<svg version="1.1" id="Layer_1" xmlns="http://www.w3.org/2000/svg" xmlns:xlink="http://www.w3.org/1999/xlink" x="0px" y="0px"
	 viewBox="0 0 241 241" style="enable-background:new 0 0 241 241;" xml:space="preserve">
<title>logo-2</title>
<desc>Created with Sketch.</desc>
<g id="Page-1">
	<g id="logo-2">
		<path id="Fill-1" d="M192.2,190.98L146.62,83.63c-4.83-11.37-15.3-17.06-25.77-17.06s-20.94,5.69-25.77,17.06L49.5,190.98
			c-17.72-18.04-28.65-42.77-28.65-70.06c0-55.23,44.77-100,100-100c55.23,0,100,44.77,100,100
			C220.85,148.21,209.92,172.94,192.2,190.98L192.2,190.98z M86.38,155.29l27.1-63.84c1.8-4.24,5.39-4.87,7.36-4.87
			c1.98,0,5.56,0.63,7.36,4.87l27.1,63.84H86.38z M205.7,36.07c-22.67-22.66-52.8-35.15-84.85-35.15S58.66,13.41,36,36.07
			C13.33,58.74,0.85,88.87,0.85,120.93S13.33,183.11,36,205.78s52.8,35.15,84.85,35.15s62.19-12.48,84.85-35.15
			s35.15-52.8,35.15-84.85S228.37,58.74,205.7,36.07L205.7,36.07z"/>
	</g>
</g>
</svg>
