<?xml version="1.0" encoding="utf-8"?>
<!-- Generator: Adobe Illustrator 23.0.6, SVG Export Plug-In . SVG Version: 6.00 Build 0)  -->
<svg version="1.1" id="Layer_1" xmlns="http://www.w3.org/2000/svg" xmlns:xlink="http://www.w3.org/1999/xlink" x="0px" y="0px"
	 viewBox="0 0 300 300" style="enable-background:new 0 0 300 300;" xml:space="preserve">
<style type="text/css">
	.st0{fill-rule:evenodd;clip-rule:evenodd;}
</style>
<g>
	<path class="st0" d="M96.35,46.63c33.01-17.11,74.34-17.09,107.29,0l-37.03,64.15c-5.23-2.2-10.88-3.35-16.61-3.35
		s-11.38,1.16-16.62,3.35L96.35,46.63z M0,150c0,82.72,67.29,150,149.99,150C232.7,300,300,232.72,300,150
		C300,67.29,232.7,0,149.99,0C67.29,0,0,67.29,0,150z M149.99,10.6c76.87,0,139.41,62.53,139.41,139.4
		c0,76.87-62.54,139.42-139.41,139.42S10.6,226.87,10.6,150S73.13,10.6,149.99,10.6z M137.54,150.14c0-6.88,5.6-12.46,12.46-12.46
		s12.46,5.58,12.46,12.46c0,6.87-5.6,12.46-12.46,12.46S137.54,157.02,137.54,150.14z M173.05,150.14
		c0-12.71-10.33-23.05-23.05-23.05s-23.05,10.34-23.05,23.05c0,12.71,10.33,23.05,23.05,23.05S173.05,162.85,173.05,150.14z
		 M33.55,155.45h74.06c1.43,11.39,7.45,21.81,16.61,28.76l-37.04,64.15C55.39,227.96,35.29,193.14,33.55,155.45z M117.87,150.15
		c0-2.93-2.38-5.3-5.3-5.3H28.13c-2.92,0-5.31,2.38-5.31,5.3c0,45.26,24.37,87.46,63.58,110.14c1.22,0.71,2.66,0.89,4.01,0.53
		c1.36-0.37,2.52-1.25,3.22-2.47l42.23-73.15c1.46-2.53,0.59-5.76-1.94-7.23C124.03,172.24,117.87,161.59,117.87,150.15z
		 M192.4,155.45h74.06c-1.74,37.69-21.83,72.52-53.65,92.91l-37.03-64.15C184.95,177.25,190.96,166.85,192.4,155.45z M187.43,144.85
		c-2.92,0-5.3,2.38-5.3,5.29c0,11.43-6.15,22.09-16.06,27.83c-2.53,1.46-3.4,4.7-1.94,7.24l42.23,73.14
		c0.71,1.22,1.86,2.1,3.23,2.47c1.34,0.37,2.82,0.16,4.02-0.53c39.21-22.68,63.57-64.88,63.57-110.15c0-2.92-2.38-5.29-5.29-5.29
		L187.43,144.85L187.43,144.85z M215.53,47.24c1.45-2.53,0.58-5.78-1.96-7.24c-38.44-22.26-88.67-22.27-127.16,0
		c-2.53,1.46-3.41,4.7-1.96,7.24l42.22,73.15c0.71,1.22,1.87,2.09,3.23,2.46c1.33,0.37,2.78,0.18,4.02-0.53
		c9.73-5.62,22.42-5.62,32.15,0c1.15,0.67,2.72,0.92,4.01,0.53c1.36-0.37,2.53-1.24,3.23-2.46L215.53,47.24z"/>
</g>
</svg>
