<?xml version="1.0" encoding="utf-8"?>
<!-- Generator: Adobe Illustrator 23.0.6, SVG Export Plug-In . SVG Version: 6.00 Build 0)  -->
<svg version="1.1" id="Layer_1" xmlns="http://www.w3.org/2000/svg" xmlns:xlink="http://www.w3.org/1999/xlink" x="0px" y="0px"
	 viewBox="0 0 300 300" style="enable-background:new 0 0 300 300;" xml:space="preserve">
<g>
	<g>
		<g>
			<path d="M150.18,294.02c-49.39,0-89.53-40.2-89.53-89.59c0-19.34,6.09-37.79,17.58-53.32c10.78-14.53,25.31-25.25,42.25-31.17
				V29.53c0-1.93,1.58-3.52,3.52-3.52h52.38c1.93,0,3.52,1.58,3.52,3.52v90.41c16.93,5.92,31.52,16.7,42.3,31.17
				c11.54,15.53,17.64,33.93,17.64,53.32C239.77,253.83,199.57,294.02,150.18,294.02z M127.56,33.05v89.41c0,1.52-1,2.87-2.46,3.34
				c-34.34,11.02-57.42,42.6-57.42,78.63c0,45.53,37.03,82.56,82.5,82.56c45.53,0,82.56-37.03,82.56-82.56
				c0-36.04-23.09-67.62-57.48-78.63c-1.46-0.47-2.46-1.82-2.46-3.34V33.05H127.56z"/>
		</g>
		<g>
			<path d="M150.18,278.96c-41.07,0-74.53-33.46-74.53-74.53c0-1.35,0.76-2.58,1.99-3.16c16.52-7.85,29.77-11.66,40.49-11.66
				c12.71,0,20.74,5.21,28.42,10.25c8.09,5.27,16.41,10.72,31.23,10.72c11.31,0,25.08-3.11,42.13-9.43
				c1.05-0.41,2.29-0.23,3.22,0.41c0.94,0.64,1.52,1.76,1.52,2.87C224.71,245.51,191.25,278.96,150.18,278.96z M82.73,206.66
				c1.17,36.21,31,65.27,67.44,65.27c35.51,0,64.69-27.54,67.27-62.4c-15.64,5.45-28.65,8.09-39.67,8.09
				c-16.88,0-26.54-6.27-35.04-11.84c-7.5-4.86-13.95-9.08-24.61-9.08C108.93,196.64,97.32,199.92,82.73,206.66z"/>
		</g>
		<g>
			<path d="M97.32,191.48c-5.98,0-10.84-4.86-10.84-10.78c0-5.98,4.86-10.84,10.84-10.84c5.98,0,10.84,4.86,10.84,10.84
				C108.16,186.68,103.3,191.48,97.32,191.48z M97.32,176.89c-2.11,0-3.81,1.7-3.81,3.81c0,2.05,1.7,3.75,3.81,3.75
				c2.11,0,3.81-1.7,3.81-3.75C101.13,178.59,99.43,176.89,97.32,176.89z"/>
		</g>
		<g>
			<path d="M110.57,222.48c-4.63,0-8.44-3.75-8.44-8.38c0-4.63,3.75-8.44,8.44-8.44c4.63,0,8.38,3.75,8.38,8.44
				C119,218.73,115.2,222.48,110.57,222.48z M110.57,212.75c-0.76,0-1.41,0.59-1.41,1.41c0,0.76,0.64,1.35,1.41,1.35
				c0.76,0,1.35-0.59,1.35-1.35C111.97,213.34,111.33,212.75,110.57,212.75z"/>
		</g>
		<g>
			<path d="M143.26,189.43c-4.63,0-8.38-3.75-8.38-8.44c0-4.63,3.75-8.44,8.38-8.44s8.44,3.75,8.44,8.44
				C151.64,185.62,147.89,189.43,143.26,189.43z M143.26,179.65c-0.76,0-1.35,0.59-1.35,1.41c0,0.76,0.59,1.41,1.35,1.41
				s1.41-0.59,1.41-1.41C144.61,180.23,144.02,179.65,143.26,179.65z"/>
		</g>
		<g>
			<path d="M166.93,240.7c-4.63,0-8.38-3.75-8.38-8.44c0-4.63,3.75-8.44,8.38-8.44s8.44,3.75,8.44,8.44
				C175.37,236.89,171.62,240.7,166.93,240.7z M166.93,230.92c-0.76,0-1.35,0.59-1.35,1.41c0,0.76,0.59,1.41,1.35,1.41
				c0.76,0,1.41-0.59,1.41-1.41C168.34,231.5,167.75,230.92,166.93,230.92z"/>
		</g>
		<g>
			<path d="M131.66,247.91c-5.98,0-10.84-4.86-10.84-10.84c0-5.98,4.86-10.84,10.84-10.84s10.84,4.86,10.84,10.84
				C142.5,243.05,137.64,247.91,131.66,247.91z M131.66,233.26c-2.11,0-3.81,1.7-3.81,3.81s1.7,3.81,3.81,3.81s3.81-1.7,3.81-3.81
				S133.77,233.26,131.66,233.26z"/>
		</g>
		<g>
			<path d="M196.7,243.34c-5.98,0-10.84-4.86-10.84-10.78c0-5.98,4.86-10.84,10.84-10.84c5.98,0,10.84,4.86,10.84,10.84
				C207.48,238.54,202.68,243.34,196.7,243.34z M196.7,228.75c-2.11,0-3.81,1.7-3.81,3.81c0,2.05,1.7,3.75,3.81,3.75
				c2.11,0,3.81-1.7,3.81-3.75C200.45,230.45,198.81,228.75,196.7,228.75z"/>
		</g>
		<g>
			<path d="M175.08,208.07c-5.98,0-10.84-4.86-10.84-10.84c0-5.98,4.86-10.84,10.84-10.84c5.98,0,10.84,4.86,10.84,10.84
				C185.92,203.2,181.05,208.07,175.08,208.07z M175.08,193.42c-2.11,0-3.81,1.7-3.81,3.81s1.7,3.81,3.81,3.81
				c2.11,0,3.81-1.7,3.81-3.81S177.19,193.42,175.08,193.42z"/>
		</g>
		<g>
			<path d="M205.49,201.45c-4.63,0-8.44-3.75-8.44-8.44c0-4.63,3.75-8.44,8.44-8.44c4.63,0,8.38,3.75,8.38,8.44
				C213.93,197.7,210.12,201.45,205.49,201.45z M205.49,191.66c-0.76,0-1.41,0.59-1.41,1.41c0,0.76,0.59,1.41,1.41,1.41
				c0.76,0,1.35-0.64,1.35-1.41C206.89,192.25,206.25,191.66,205.49,191.66z"/>
		</g>
		<g>
			<path d="M177.01,33.05h-53.55c-7.38,0-13.36-5.98-13.36-13.3s5.98-13.3,13.36-13.3h53.55c7.32,0,13.3,5.98,13.3,13.3
				C190.31,27.07,184.34,33.05,177.01,33.05z M123.4,13.42c-3.46,0-6.33,2.81-6.33,6.27s2.81,6.27,6.33,6.27h53.55
				c3.46,0,6.27-2.81,6.27-6.27s-2.81-6.27-6.27-6.27C176.95,13.42,123.4,13.42,123.4,13.42z"/>
		</g>
		<g>
			<path d="M184.63,163.89c-4.63,0-8.44-3.75-8.44-8.38c0-4.63,3.75-8.44,8.44-8.44c4.63,0,8.44,3.75,8.44,8.44
				C193.01,160.14,189.26,163.89,184.63,163.89z M184.63,154.16c-0.76,0-1.41,0.64-1.41,1.41c0,0.7,0.64,1.35,1.41,1.35
				c0.76,0,1.41-0.59,1.41-1.35C185.98,154.75,185.39,154.16,184.63,154.16z"/>
		</g>
		<g>
			<path d="M125.33,159.43c-4.63,0-8.38-3.75-8.38-8.38s3.75-8.44,8.38-8.44c4.63,0,8.38,3.75,8.38,8.44
				C133.71,155.68,129.96,159.43,125.33,159.43z M125.33,149.71c-0.76,0-1.35,0.59-1.35,1.41c0,0.76,0.59,1.35,1.35,1.35
				c0.76,0,1.35-0.59,1.35-1.35C126.68,150.29,126.09,149.71,125.33,149.71z"/>
		</g>
	</g>
</g>
</svg>
