<?xml version="1.0" encoding="UTF-8"?>
<!DOCTYPE svg PUBLIC "-//W3C//DTD SVG 1.1//EN" "http://www.w3.org/Graphics/SVG/1.1/DTD/svg11.dtd">
<svg version="1.1" xmlns="http://www.w3.org/2000/svg" xmlns:xlink="http://www.w3.org/1999/xlink" x="0" y="0" width="94.04" height="94.04" viewBox="0, 0, 94.04, 94.04">
  <g id="Layer_1">
    <path d="M71.19,86.78 C64.15,91.07 55.87,93.54 47.02,93.54 C21.33,93.54 0.5,72.71 0.5,47.02 C0.5,21.33 21.33,0.5 47.02,0.5 C72.71,0.5 93.54,21.33 93.54,47.02 C93.54,56.29 90.83,64.92 86.16,72.18" fill-opacity="0" stroke="#000000" stroke-width="1" stroke-miterlimit="10"/>
    <path d="M47.02,93.558 C21.318,93.558 0.482,72.722 0.482,47.02 C0.482,21.318 21.318,0.482 47.02,0.482 C72.722,0.482 93.558,21.318 93.558,47.02 C93.558,72.722 72.722,93.558 47.02,93.558 z" fill-opacity="0" stroke="#000000" stroke-width="1"/>
    <path d="M54.3,47.02 C54.3,51.041 51.041,54.3 47.02,54.3 C42.999,54.3 39.74,51.041 39.74,47.02 C39.74,42.999 42.999,39.74 47.02,39.74 C51.041,39.74 54.3,42.999 54.3,47.02 z" fill-opacity="0" stroke="#000000" stroke-width="0.5" stroke-miterlimit="10"/>
    <path d="M91.54,72.189 C94.607,79.592 91.091,88.081 83.687,91.147 C76.284,94.214 67.795,90.698 64.729,83.295 C61.662,75.891 65.178,67.403 72.581,64.336 C79.985,61.269 88.473,64.785 91.54,72.189 z" fill="#000000" display="none"/>
    <path d="M70.32,77.74 L85.94,77.74" fill-opacity="0" stroke="#FFFFFF" stroke-width="3" stroke-miterlimit="10" display="none"/>
    <path d="M78.13,70.07 L78.13,85.41" fill-opacity="0" stroke="#FFFFFF" stroke-width="3" stroke-miterlimit="10" display="none"/>
    <path d="M37.31,86.26 C37.31,86.774 36.894,87.19 36.38,87.19 C35.866,87.19 35.45,86.774 35.45,86.26 C35.45,85.746 35.866,85.33 36.38,85.33 C36.894,85.33 37.31,85.746 37.31,86.26 z" fill="#000000"/>
    <path d="M58.68,86.26 C58.68,86.774 58.264,87.19 57.75,87.19 C57.236,87.19 56.82,86.774 56.82,86.26 C56.82,85.746 57.236,85.33 57.75,85.33 C58.264,85.33 58.68,85.746 58.68,86.26 z" fill="#000000"/>
  </g>
</svg>
